# xmcd
#
# Track frame offsets:
# 150
# 18017
# 29572
# 49695
# 66630
# 80507
# 100711
# 116714
# 138826
# 154834
# 176066
# 195838
# 210721
# 224628
#
# Disc length: 3240 seconds
#
#
# Revision: 4
# Processed by: cddbd v1.5.1PL2 Copyright (c) Steve Scherf et al.
# Submitted via: FreeRIP 2.944 
#
DISCID=c50ca60e
DTITLE=Boko Suzuki - 002 - Elton John- A Piano Tribute
DYEAR=1998
DGENRE=Pop
TTITLE0=Your Song
TTITLE1=Border Song
TTITLE2=Rocket Man
TTITLE3=Daniel
TTITLE4=Goodbye Yellow Brick Road
TTITLE5=Bennie And The Jets
TTITLE6=Candle In The Wind
TTITLE7=Don't Let The Sun Go Down On Me
TTITLE8=Tiny Dancer
TTITLE9=Levon
TTITLE10=Someone Saved My Life Tonight
TTITLE11=Sorry Seems To Be The Hardest Word
TTITLE12=I Guess That's Why They Call It The Blues
TTITLE13=The One
EXTD=YEAR: 1998
EXTT0=
EXTT1=
EXTT2=
EXTT3=
EXTT4=
EXTT5=
EXTT6=
EXTT7=
EXTT8=
EXTT9=
EXTT10=
EXTT11=
EXTT12=
EXTT13=
PLAYORDER=
